<svg width="1101" height="466" viewBox="0 0 1101 466" fill="none" xmlns="http://www.w3.org/2000/svg">
<g clip-path="url(#clip0)">
<path d="M21.1731 0V466" stroke="#374259" stroke-width="3"/>
<path d="M127.039 0V466" stroke="#374259" stroke-opacity="0.1"/>
<path d="M232.904 0V466" stroke="#374259" stroke-opacity="0.1"/>
<path d="M338.769 0V466" stroke="#374259" stroke-opacity="0.1"/>
<path d="M444.635 0V466" stroke="#374259" stroke-opacity="0.1"/>
<path d="M550.5 0V466" stroke="#374259" stroke-opacity="0.1"/>
<path d="M656.365 0V466" stroke="#374259" stroke-opacity="0.1"/>
<path d="M762.231 0V466" stroke="#374259" stroke-opacity="0.1"/>
<path d="M868.096 0V466" stroke="#374259" stroke-opacity="0.1"/>
<path d="M973.961 0V466" stroke="#374259" stroke-opacity="0.1"/>
<path d="M1079.83 0V466" stroke="#374259" stroke-opacity="0.1"/>
<path d="M21.1731 21.1497H1080.53" stroke="#374259" stroke-opacity="0.1"/>
<path d="M21.1731 126.899H1080.53" stroke="#374259" stroke-opacity="0.1"/>
<path d="M21.1731 232.647H1080.53" stroke="#374259" stroke-opacity="0.1"/>
<path d="M21.1731 338.396H1080.53" stroke="#374259" stroke-opacity="0.1"/>
<path d="M21.1731 444.145H1080.53" stroke="#374259" stroke-opacity="0.1"/>
<path d="M41.9238 232.501H0V210.548H41.9238V232.501Z" fill="#63C1D5"/>
<path d="M19.8779 220.747H20.6923C21.204 220.739 21.6064 220.604 21.8993 220.342C22.1923 220.081 22.3388 219.727 22.3388 219.282C22.3388 218.282 21.8408 217.782 20.8447 217.782C20.3759 217.782 20.0009 217.917 19.7197 218.186C19.4423 218.452 19.3036 218.805 19.3036 219.247H18.2197C18.2197 218.571 18.4658 218.01 18.9579 217.565C19.454 217.116 20.0829 216.891 20.8447 216.891C21.6493 216.891 22.2802 217.104 22.7372 217.53C23.1943 217.956 23.4228 218.547 23.4228 219.305C23.4228 219.676 23.3017 220.036 23.0595 220.383C22.8212 220.731 22.4951 220.991 22.081 221.163C22.5497 221.311 22.9111 221.557 23.165 221.901C23.4228 222.245 23.5517 222.665 23.5517 223.161C23.5517 223.926 23.3017 224.534 22.8017 224.983C22.3017 225.432 21.6513 225.657 20.8505 225.657C20.0497 225.657 19.3974 225.44 18.8935 225.006C18.3935 224.573 18.1435 224 18.1435 223.29H19.2333C19.2333 223.739 19.3798 224.098 19.6728 224.368C19.9658 224.637 20.3583 224.772 20.8505 224.772C21.374 224.772 21.7743 224.635 22.0517 224.362C22.329 224.088 22.4677 223.696 22.4677 223.184C22.4677 222.688 22.3154 222.307 22.0107 222.042C21.706 221.776 21.2665 221.639 20.6923 221.631H19.8779V220.747Z" fill="black"/>
<path d="M254.538 232.501H211.615V276.407H254.538V232.501Z" fill="#C3ED00"/>
<path d="M234.171 259.91V260.83H233.972C233.128 260.846 232.456 261.096 231.956 261.58C231.456 262.065 231.167 262.746 231.089 263.625C231.538 263.11 232.152 262.852 232.929 262.852C233.671 262.852 234.263 263.114 234.704 263.637C235.15 264.16 235.372 264.836 235.372 265.664C235.372 266.543 235.132 267.246 234.652 267.774C234.175 268.301 233.534 268.565 232.73 268.565C231.913 268.565 231.251 268.252 230.743 267.627C230.236 266.998 229.982 266.19 229.982 265.201V264.785C229.982 263.215 230.316 262.016 230.984 261.188C231.656 260.356 232.654 259.93 233.978 259.91H234.171ZM232.747 263.754C232.376 263.754 232.034 263.865 231.722 264.088C231.409 264.311 231.193 264.59 231.072 264.926V265.324C231.072 266.028 231.23 266.594 231.546 267.024C231.863 267.453 232.257 267.668 232.73 267.668C233.218 267.668 233.601 267.489 233.878 267.129C234.159 266.77 234.3 266.299 234.3 265.717C234.3 265.131 234.157 264.658 233.872 264.299C233.591 263.936 233.216 263.754 232.747 263.754Z" fill="black"/>
<path d="M466.153 232.501H423.231V64.8609H466.153V232.501Z" fill="#63C1D5"/>
<path d="M443.754 82.8459H438.164V82.0667L441.117 78.7854C441.555 78.2893 441.855 77.887 442.019 77.5784C442.187 77.2659 442.271 76.9436 442.271 76.6116C442.271 76.1663 442.137 75.801 441.867 75.5159C441.598 75.2307 441.238 75.0881 440.789 75.0881C440.25 75.0881 439.83 75.2424 439.529 75.551C439.232 75.8557 439.084 76.2815 439.084 76.8284H438C438 76.0432 438.252 75.4084 438.756 74.9241C439.264 74.4397 439.941 74.1975 440.789 74.1975C441.582 74.1975 442.209 74.4065 442.67 74.8245C443.131 75.2385 443.361 75.7913 443.361 76.4827C443.361 77.3225 442.826 78.3225 441.756 79.4827L439.471 81.9612H443.754V82.8459ZM449.478 79.9807H450.662V80.8655H449.478V82.8459H448.389V80.8655H444.504V80.2268L448.324 74.3147H449.478V79.9807ZM445.734 79.9807H448.389V75.7971L448.26 76.0315L445.734 79.9807Z" fill="black"/>
<path d="M677.769 232.501H634.847V364.218H677.769V232.501Z" fill="#C3ED00"/>
<path d="M655.868 349.274H650.278V348.495L653.232 345.213C653.669 344.717 653.97 344.315 654.134 344.006C654.302 343.694 654.386 343.372 654.386 343.04C654.386 342.594 654.251 342.229 653.982 341.944C653.712 341.659 653.353 341.516 652.903 341.516C652.364 341.516 651.944 341.67 651.644 341.979C651.347 342.284 651.198 342.709 651.198 343.256H650.114C650.114 342.471 650.366 341.836 650.87 341.352C651.378 340.868 652.056 340.625 652.903 340.625C653.696 340.625 654.323 340.834 654.784 341.252C655.245 341.667 655.476 342.219 655.476 342.911C655.476 343.75 654.941 344.75 653.87 345.911L651.585 348.389H655.868V349.274ZM662.366 345.635C662.366 346.905 662.15 347.848 661.716 348.465C661.282 349.083 660.605 349.391 659.683 349.391C658.773 349.391 658.099 349.09 657.661 348.489C657.224 347.883 656.997 346.981 656.982 345.782V344.334C656.982 343.081 657.198 342.149 657.632 341.54C658.066 340.93 658.745 340.625 659.671 340.625C660.589 340.625 661.265 340.92 661.698 341.51C662.132 342.096 662.355 343.002 662.366 344.229V345.635ZM661.282 344.153C661.282 343.235 661.153 342.567 660.896 342.149C660.638 341.727 660.23 341.516 659.671 341.516C659.116 341.516 658.712 341.725 658.458 342.143C658.204 342.561 658.073 343.204 658.066 344.071V345.805C658.066 346.727 658.198 347.409 658.464 347.85C658.733 348.288 659.14 348.506 659.683 348.506C660.218 348.506 660.614 348.299 660.872 347.885C661.134 347.471 661.271 346.819 661.282 345.928V344.153Z" fill="black"/>
<path d="M889.384 232.501H846.462V114.754H889.384V232.501Z" fill="#63C1D5"/>
<path d="M865.956 132.739H864.866V125.514L862.68 126.317V125.333L865.786 124.167H865.956V132.739ZM874.639 124.817L871.106 132.739H869.969L873.491 125.098H868.874V124.208H874.639V124.817Z" fill="black"/>
<path d="M1101.42 232.647H1059.08V261.439H1101.42V232.647Z" fill="#C3ED00"/>
<path d="M1078.46 250.682H1079.27C1079.78 250.675 1080.18 250.54 1080.48 250.278C1080.77 250.016 1080.92 249.663 1080.92 249.218C1080.92 248.218 1080.42 247.718 1079.42 247.718C1078.95 247.718 1078.58 247.852 1078.3 248.122C1078.02 248.387 1077.88 248.741 1077.88 249.182H1076.8C1076.8 248.507 1077.04 247.946 1077.54 247.501C1078.03 247.052 1078.66 246.827 1079.42 246.827C1080.23 246.827 1080.86 247.04 1081.31 247.466C1081.77 247.891 1082 248.483 1082 249.241C1082 249.612 1081.88 249.971 1081.64 250.319C1081.4 250.667 1081.07 250.927 1080.66 251.098C1081.13 251.247 1081.49 251.493 1081.74 251.837C1082 252.18 1082.13 252.6 1082.13 253.096C1082.13 253.862 1081.88 254.469 1081.38 254.919C1080.88 255.368 1080.23 255.593 1079.43 255.593C1078.63 255.593 1077.97 255.376 1077.47 254.942C1076.97 254.509 1076.72 253.936 1076.72 253.225H1077.81C1077.81 253.675 1077.96 254.034 1078.25 254.303C1078.54 254.573 1078.94 254.708 1079.43 254.708C1079.95 254.708 1080.35 254.571 1080.63 254.298C1080.91 254.024 1081.04 253.632 1081.04 253.12C1081.04 252.624 1080.89 252.243 1080.59 251.977C1080.28 251.712 1079.84 251.575 1079.27 251.567H1078.46V250.682Z" fill="black"/>
<path d="M0 232.647H1101" stroke="#374259" stroke-width="3"/>
<path d="M22.5847 21.1497C128.238 21.1497 128.238 444.145 233.821 444.145" stroke="url(#paint0_linear)" stroke-width="6"/>
<path d="M233.469 444.145C339.122 444.145 339.193 21.4317 444.705 21.1497" stroke="url(#paint1_linear)" stroke-width="6"/>
<path d="M444.352 21.1497C550.147 20.9382 550.359 443.793 656.083 444.145" stroke="url(#paint2_linear)" stroke-width="6"/>
<path d="M656.93 444.145C762.584 444.145 762.654 21.4317 868.167 21.1497" stroke="url(#paint3_linear)" stroke-width="6"/>
<path d="M868.096 21.1497C973.75 21.1497 973.75 444.145 1079.33 444.145" stroke="url(#paint4_linear)" stroke-width="6"/>
<path d="M393.477 74.2099C398.544 74.2099 402.652 70.1067 402.652 65.045C402.652 59.9834 398.544 55.8801 393.477 55.8801C388.41 55.8801 384.302 59.9834 384.302 65.045C384.302 70.1067 388.41 74.2099 393.477 74.2099Z" fill="#374259"/>
<path d="M393.785 69.8501C396.265 69.8501 398.276 67.8397 398.276 65.3597C398.276 62.8798 396.265 60.8694 393.785 60.8694C391.304 60.8694 389.293 62.8798 389.293 65.3597C389.293 67.8397 391.304 69.8501 393.785 69.8501Z" fill="white"/>
<g filter="url(#filter0_d)">
<path d="M122.777 35.9443C122.777 30.4215 127.254 25.9443 132.777 25.9443H353.87C356.708 25.9443 359.412 27.1504 361.309 29.2619L393.285 64.8608L361.309 100.46C359.412 102.571 356.708 103.777 353.87 103.777H132.777C127.254 103.777 122.777 99.3002 122.777 93.7773V35.9443Z" fill="white"/>
</g>
<path d="M147.229 57.9143V46.1423H149.587L151.675 51.9023C151.807 52.2743 151.933 52.6583 152.053 53.0543C152.173 53.4383 152.299 53.8223 152.431 54.2063H152.503C152.635 53.8223 152.755 53.4383 152.863 53.0543C152.983 52.6583 153.109 52.2743 153.241 51.9023L155.275 46.1423H157.651V57.9143H155.725V52.5323C155.725 52.2563 155.731 51.9563 155.743 51.6323C155.767 51.3083 155.791 50.9843 155.815 50.6603C155.839 50.3243 155.869 50.0003 155.905 49.6883C155.941 49.3643 155.971 49.0643 155.995 48.7883H155.923L154.969 51.5243L153.043 56.8163H151.801L149.857 51.5243L148.921 48.7883H148.849C148.873 49.0643 148.897 49.3643 148.921 49.6883C148.957 50.0003 148.987 50.3243 149.011 50.6603C149.047 50.9843 149.071 51.3083 149.083 51.6323C149.107 51.9563 149.119 52.2563 149.119 52.5323V57.9143H147.229ZM164.241 58.1303C163.629 58.1303 163.059 58.0283 162.531 57.8243C162.003 57.6083 161.541 57.3023 161.145 56.9063C160.749 56.5103 160.437 56.0303 160.209 55.4663C159.993 54.8903 159.885 54.2363 159.885 53.5043C159.885 52.7843 159.999 52.1363 160.227 51.5603C160.455 50.9843 160.755 50.4983 161.127 50.1023C161.511 49.7063 161.949 49.4003 162.441 49.1843C162.933 48.9683 163.437 48.8603 163.953 48.8603C164.553 48.8603 165.081 48.9623 165.537 49.1663C165.993 49.3703 166.371 49.6583 166.671 50.0303C166.983 50.4023 167.217 50.8463 167.373 51.3623C167.529 51.8783 167.607 52.4423 167.607 53.0543C167.607 53.2583 167.595 53.4503 167.571 53.6303C167.559 53.8103 167.541 53.9543 167.517 54.0623H161.901C161.997 54.8543 162.273 55.4663 162.729 55.8983C163.197 56.3183 163.791 56.5283 164.511 56.5283C164.895 56.5283 165.249 56.4743 165.573 56.3663C165.909 56.2463 166.239 56.0843 166.563 55.8803L167.265 57.1763C166.845 57.4523 166.377 57.6803 165.861 57.8603C165.345 58.0403 164.805 58.1303 164.241 58.1303ZM161.883 52.6583H165.807C165.807 51.9743 165.657 51.4403 165.357 51.0563C165.069 50.6603 164.619 50.4623 164.007 50.4623C163.479 50.4623 163.017 50.6483 162.621 51.0203C162.225 51.3923 161.979 51.9383 161.883 52.6583ZM171.334 57.9143V50.7143H168.562V49.0763H176.194V50.7143H173.422V57.9143H171.334ZM179.724 58.1303C178.944 58.1303 178.314 57.8963 177.834 57.4283C177.354 56.9483 177.114 56.3183 177.114 55.5383C177.114 55.0703 177.21 54.6563 177.402 54.2963C177.606 53.9243 177.918 53.6063 178.338 53.3423C178.77 53.0783 179.31 52.8563 179.958 52.6763C180.618 52.4963 181.404 52.3583 182.316 52.2623C182.304 52.0343 182.268 51.8183 182.208 51.6143C182.16 51.3983 182.07 51.2123 181.938 51.0563C181.818 50.8883 181.656 50.7623 181.452 50.6783C181.248 50.5823 180.996 50.5343 180.696 50.5343C180.264 50.5343 179.838 50.6183 179.418 50.7863C179.01 50.9543 178.608 51.1583 178.212 51.3983L177.456 50.0123C177.948 49.7003 178.5 49.4303 179.112 49.2023C179.724 48.9743 180.384 48.8603 181.092 48.8603C182.196 48.8603 183.018 49.1903 183.558 49.8503C184.11 50.4983 184.386 51.4403 184.386 52.6763V57.9143H182.676L182.532 56.9423H182.46C182.064 57.2783 181.638 57.5603 181.182 57.7883C180.738 58.0163 180.252 58.1303 179.724 58.1303ZM180.39 56.5103C180.75 56.5103 181.074 56.4263 181.362 56.2583C181.662 56.0903 181.98 55.8503 182.316 55.5383V53.5583C181.716 53.6303 181.212 53.7263 180.804 53.8463C180.396 53.9663 180.066 54.1043 179.814 54.2603C179.562 54.4043 179.382 54.5723 179.274 54.7643C179.166 54.9563 179.112 55.1603 179.112 55.3763C179.112 55.7723 179.232 56.0603 179.472 56.2403C179.712 56.4203 180.018 56.5103 180.39 56.5103ZM191.346 61.4063V58.8683L191.418 57.5363C191.178 57.7043 190.908 57.8423 190.608 57.9503C190.32 58.0703 190.02 58.1303 189.708 58.1303C188.676 58.1303 187.854 57.7283 187.242 56.9243C186.63 56.1083 186.324 54.9683 186.324 53.5043C186.324 52.7843 186.414 52.1363 186.594 51.5603C186.786 50.9843 187.038 50.4983 187.35 50.1023C187.662 49.7063 188.022 49.4003 188.43 49.1843C188.838 48.9683 189.264 48.8603 189.708 48.8603C190.056 48.8603 190.368 48.9143 190.644 49.0223C190.92 49.1183 191.178 49.2503 191.418 49.4183L191.346 48.1223V45.2063H193.38V48.1223L193.308 49.4723C193.584 49.3043 193.884 49.1603 194.208 49.0403C194.532 48.9203 194.85 48.8603 195.162 48.8603C195.666 48.8603 196.116 48.9683 196.512 49.1843C196.92 49.3883 197.262 49.6883 197.538 50.0843C197.826 50.4803 198.042 50.9543 198.186 51.5063C198.33 52.0583 198.402 52.6763 198.402 53.3603C198.402 54.1163 198.306 54.7943 198.114 55.3943C197.934 55.9823 197.682 56.4803 197.358 56.8883C197.046 57.2843 196.68 57.5903 196.26 57.8063C195.852 58.0223 195.426 58.1303 194.982 58.1303C194.406 58.1303 193.848 57.9443 193.308 57.5723L193.38 58.8683V61.4063H191.346ZM190.212 56.4203C190.44 56.4203 190.644 56.3843 190.824 56.3123C191.016 56.2403 191.214 56.1083 191.418 55.9163V51.0383C191.214 50.8703 191.004 50.7503 190.788 50.6783C190.572 50.6063 190.356 50.5703 190.14 50.5703C189.672 50.5703 189.276 50.8223 188.952 51.3263C188.628 51.8303 188.466 52.5503 188.466 53.4863C188.466 54.4463 188.616 55.1783 188.916 55.6823C189.216 56.1743 189.648 56.4203 190.212 56.4203ZM194.532 56.4203C195.036 56.4203 195.45 56.1683 195.774 55.6643C196.098 55.1483 196.26 54.3863 196.26 53.3783C196.26 52.4903 196.122 51.8003 195.846 51.3083C195.582 50.8163 195.162 50.5703 194.586 50.5703C194.382 50.5703 194.172 50.6063 193.956 50.6783C193.752 50.7383 193.536 50.8643 193.308 51.0563V55.9523C193.524 56.1323 193.74 56.2583 193.956 56.3303C194.172 56.3903 194.364 56.4203 194.532 56.4203ZM204.105 58.1303C203.553 58.1303 203.025 58.0283 202.521 57.8243C202.017 57.6203 201.567 57.3203 201.171 56.9243C200.787 56.5283 200.481 56.0423 200.253 55.4663C200.025 54.8903 199.911 54.2363 199.911 53.5043C199.911 52.7723 200.025 52.1183 200.253 51.5423C200.481 50.9663 200.787 50.4803 201.171 50.0843C201.567 49.6883 202.017 49.3883 202.521 49.1843C203.025 48.9683 203.553 48.8603 204.105 48.8603C204.657 48.8603 205.185 48.9683 205.689 49.1843C206.205 49.3883 206.655 49.6883 207.039 50.0843C207.423 50.4803 207.729 50.9663 207.957 51.5423C208.197 52.1183 208.317 52.7723 208.317 53.5043C208.317 54.2363 208.197 54.8903 207.957 55.4663C207.729 56.0423 207.423 56.5283 207.039 56.9243C206.655 57.3203 206.205 57.6203 205.689 57.8243C205.185 58.0283 204.657 58.1303 204.105 58.1303ZM204.105 56.4383C204.753 56.4383 205.263 56.1743 205.635 55.6463C206.007 55.1063 206.193 54.3923 206.193 53.5043C206.193 52.6043 206.007 51.8903 205.635 51.3623C205.263 50.8223 204.753 50.5523 204.105 50.5523C203.457 50.5523 202.947 50.8223 202.575 51.3623C202.215 51.8903 202.035 52.6043 202.035 53.5043C202.035 54.3923 202.215 55.1063 202.575 55.6463C202.947 56.1743 203.457 56.4383 204.105 56.4383ZM210.366 61.4063V49.0763H212.076L212.22 50.0123H212.292C212.664 49.7003 213.078 49.4303 213.534 49.2023C213.99 48.9743 214.464 48.8603 214.956 48.8603C215.508 48.8603 215.994 48.9683 216.414 49.1843C216.846 49.3883 217.212 49.6883 217.512 50.0843C217.812 50.4803 218.04 50.9543 218.196 51.5063C218.352 52.0583 218.43 52.6763 218.43 53.3603C218.43 54.1163 218.322 54.7943 218.106 55.3943C217.902 55.9823 217.626 56.4803 217.278 56.8883C216.93 57.2843 216.528 57.5903 216.072 57.8063C215.616 58.0223 215.142 58.1303 214.65 58.1303C214.266 58.1303 213.882 58.0463 213.498 57.8783C213.114 57.7103 212.742 57.4703 212.382 57.1583L212.436 58.6343V61.4063H210.366ZM214.218 56.4203C214.806 56.4203 215.298 56.1683 215.694 55.6643C216.09 55.1483 216.288 54.3863 216.288 53.3783C216.288 52.4903 216.138 51.8003 215.838 51.3083C215.538 50.8163 215.052 50.5703 214.38 50.5703C213.756 50.5703 213.108 50.9003 212.436 51.5603V55.6823C212.76 55.9583 213.072 56.1503 213.372 56.2583C213.672 56.3663 213.954 56.4203 214.218 56.4203ZM220.526 57.9143V49.0763H222.596V52.4603H226.124V49.0763H228.194V57.9143H226.124V54.2783H222.596V57.9143H220.526ZM230.826 57.9143V49.0763H232.896V52.1003H233.832C234.36 52.1003 234.846 52.1543 235.29 52.2623C235.746 52.3703 236.136 52.5383 236.46 52.7663C236.784 52.9943 237.036 53.2943 237.216 53.6663C237.408 54.0263 237.504 54.4643 237.504 54.9803C237.504 55.5083 237.408 55.9583 237.216 56.3303C237.036 56.7023 236.784 57.0083 236.46 57.2483C236.136 57.4763 235.746 57.6443 235.29 57.7523C234.846 57.8603 234.36 57.9143 233.832 57.9143H230.826ZM232.896 56.3123H233.706C234.894 56.3123 235.488 55.8623 235.488 54.9623C235.488 54.0983 234.894 53.6663 233.706 53.6663H232.896V56.3123ZM238.854 57.9143V49.0763H240.924V57.9143H238.854ZM243.553 57.9143V49.0763H245.569V52.1183C245.569 52.5743 245.545 53.0843 245.497 53.6483C245.461 54.2003 245.425 54.7583 245.389 55.3223H245.443C245.599 55.0463 245.785 54.7343 246.001 54.3863C246.217 54.0263 246.397 53.7143 246.541 53.4503L249.349 49.0763H251.257V57.9143H249.241V54.8723C249.241 54.4163 249.259 53.9123 249.295 53.3603C249.343 52.7963 249.391 52.2323 249.439 51.6683H249.367C249.211 51.9443 249.025 52.2623 248.809 52.6223C248.605 52.9703 248.425 53.2763 248.269 53.5403L245.461 57.9143H243.553ZM247.477 47.6003C246.961 47.6003 246.517 47.5283 246.145 47.3843C245.785 47.2283 245.485 47.0243 245.245 46.7723C245.017 46.5203 244.843 46.2203 244.723 45.8723C244.603 45.5243 244.537 45.1523 244.525 44.7563H246.163C246.187 45.2603 246.289 45.6683 246.469 45.9803C246.649 46.2923 246.985 46.4483 247.477 46.4483C247.969 46.4483 248.305 46.2923 248.485 45.9803C248.665 45.6683 248.767 45.2603 248.791 44.7563H250.429C250.417 45.1523 250.351 45.5243 250.231 45.8723C250.111 46.2203 249.931 46.5203 249.691 46.7723C249.463 47.0243 249.163 47.2283 248.791 47.3843C248.431 47.5283 247.993 47.6003 247.477 47.6003ZM262.37 58.1303C261.626 58.1303 260.93 57.9983 260.282 57.7343C259.634 57.4703 259.07 57.0803 258.59 56.5643C258.122 56.0483 257.75 55.4123 257.474 54.6563C257.198 53.9003 257.06 53.0363 257.06 52.0643C257.06 51.1043 257.198 50.2463 257.474 49.4903C257.762 48.7223 258.146 48.0743 258.626 47.5463C259.118 47.0183 259.688 46.6163 260.336 46.3403C260.996 46.0643 261.698 45.9263 262.442 45.9263C263.186 45.9263 263.846 46.0763 264.422 46.3763C264.998 46.6763 265.472 47.0243 265.844 47.4203L264.728 48.7703C264.416 48.4583 264.08 48.2123 263.72 48.0323C263.36 47.8403 262.952 47.7443 262.496 47.7443C262.016 47.7443 261.572 47.8463 261.164 48.0503C260.768 48.2423 260.42 48.5243 260.12 48.8963C259.832 49.2563 259.604 49.7003 259.436 50.2283C259.28 50.7563 259.202 51.3503 259.202 52.0103C259.202 53.3543 259.49 54.4103 260.066 55.1783C260.654 55.9343 261.446 56.3123 262.442 56.3123C262.97 56.3123 263.438 56.2043 263.846 55.9883C264.254 55.7603 264.626 55.4663 264.962 55.1063L266.078 56.4203C265.598 56.9723 265.046 57.3983 264.422 57.6983C263.81 57.9863 263.126 58.1303 262.37 58.1303ZM267.864 57.9143V49.0763H269.88V52.1183C269.88 52.5743 269.856 53.0843 269.808 53.6483C269.772 54.2003 269.736 54.7583 269.7 55.3223H269.754C269.91 55.0463 270.096 54.7343 270.312 54.3863C270.528 54.0263 270.708 53.7143 270.852 53.4503L273.66 49.0763H275.568V57.9143H273.552V54.8723C273.552 54.4163 273.57 53.9123 273.606 53.3603C273.654 52.7963 273.702 52.2323 273.75 51.6683H273.678C273.522 51.9443 273.336 52.2623 273.12 52.6223C272.916 52.9703 272.736 53.2763 272.58 53.5403L269.772 57.9143H267.864ZM281.889 58.1303C281.289 58.1303 280.725 58.0283 280.197 57.8243C279.681 57.6203 279.231 57.3203 278.847 56.9243C278.463 56.5283 278.163 56.0423 277.947 55.4663C277.731 54.8903 277.623 54.2363 277.623 53.5043C277.623 52.7723 277.743 52.1183 277.983 51.5423C278.223 50.9663 278.547 50.4803 278.955 50.0843C279.363 49.6883 279.831 49.3883 280.359 49.1843C280.899 48.9683 281.463 48.8603 282.051 48.8603C282.627 48.8603 283.119 48.9563 283.527 49.1483C283.947 49.3403 284.319 49.5743 284.643 49.8503L283.635 51.2003C283.395 50.9963 283.155 50.8403 282.915 50.7323C282.687 50.6123 282.435 50.5523 282.159 50.5523C281.439 50.5523 280.857 50.8223 280.413 51.3623C279.969 51.8903 279.747 52.6043 279.747 53.5043C279.747 54.3923 279.963 55.1063 280.395 55.6463C280.839 56.1743 281.409 56.4383 282.105 56.4383C282.453 56.4383 282.777 56.3663 283.077 56.2223C283.389 56.0663 283.671 55.8863 283.923 55.6823L284.769 57.0503C284.349 57.4103 283.887 57.6803 283.383 57.8603C282.891 58.0403 282.393 58.1303 281.889 58.1303ZM288.264 57.9143V50.7143H285.492V49.0763H293.124V50.7143H290.352V57.9143H288.264ZM298.397 58.1303C297.785 58.1303 297.215 58.0283 296.687 57.8243C296.159 57.6083 295.697 57.3023 295.301 56.9063C294.905 56.5103 294.593 56.0303 294.365 55.4663C294.149 54.8903 294.041 54.2363 294.041 53.5043C294.041 52.7843 294.155 52.1363 294.383 51.5603C294.611 50.9843 294.911 50.4983 295.283 50.1023C295.667 49.7063 296.105 49.4003 296.597 49.1843C297.089 48.9683 297.593 48.8603 298.109 48.8603C298.709 48.8603 299.237 48.9623 299.693 49.1663C300.149 49.3703 300.527 49.6583 300.827 50.0303C301.139 50.4023 301.373 50.8463 301.529 51.3623C301.685 51.8783 301.763 52.4423 301.763 53.0543C301.763 53.2583 301.751 53.4503 301.727 53.6303C301.715 53.8103 301.697 53.9543 301.673 54.0623H296.057C296.153 54.8543 296.429 55.4663 296.885 55.8983C297.353 56.3183 297.947 56.5283 298.667 56.5283C299.051 56.5283 299.405 56.4743 299.729 56.3663C300.065 56.2463 300.395 56.0843 300.719 55.8803L301.421 57.1763C301.001 57.4523 300.533 57.6803 300.017 57.8603C299.501 58.0403 298.961 58.1303 298.397 58.1303ZM296.039 52.6583H299.963C299.963 51.9743 299.813 51.4403 299.513 51.0563C299.225 50.6603 298.775 50.4623 298.163 50.4623C297.635 50.4623 297.173 50.6483 296.777 51.0203C296.381 51.3923 296.135 51.9383 296.039 52.6583ZM303.741 57.9143V49.0763H306.117L307.539 52.6403C307.671 53.0123 307.791 53.3663 307.899 53.7023C308.019 54.0383 308.133 54.3743 308.241 54.7103H308.313C308.433 54.3743 308.553 54.0383 308.673 53.7023C308.805 53.3663 308.925 53.0123 309.033 52.6403L310.383 49.0763H312.759V57.9143H310.887V54.8183C310.887 54.6023 310.893 54.3503 310.905 54.0623C310.929 53.7623 310.953 53.4563 310.977 53.1443C311.001 52.8203 311.025 52.5083 311.049 52.2083C311.073 51.8963 311.097 51.6203 311.121 51.3803H311.049C310.917 51.7523 310.773 52.1423 310.617 52.5503C310.473 52.9463 310.335 53.3183 310.203 53.6663L308.871 57.1223H307.647L306.279 53.6663C306.147 53.3183 306.003 52.9403 305.847 52.5323C305.703 52.1243 305.565 51.7403 305.433 51.3803H305.361C305.373 51.6203 305.391 51.8963 305.415 52.2083C305.451 52.5083 305.475 52.8203 305.487 53.1443C305.511 53.4563 305.529 53.7623 305.541 54.0623C305.565 54.3503 305.577 54.6023 305.577 54.8183V57.9143H303.741ZM326.105 61.0103V57.9143H315.395V49.0763H317.447V56.2583H320.075V49.0763H322.073V56.2583H324.701V49.0763H326.753V56.2583H328.085V57.6083L327.887 61.0103H326.105ZM329.686 57.9143V49.0763H331.702V52.1183C331.702 52.5743 331.678 53.0843 331.63 53.6483C331.594 54.2003 331.558 54.7583 331.522 55.3223H331.576C331.732 55.0463 331.918 54.7343 332.134 54.3863C332.35 54.0263 332.53 53.7143 332.674 53.4503L335.482 49.0763H337.39V57.9143H335.374V54.8723C335.374 54.4163 335.392 53.9123 335.428 53.3603C335.476 52.7963 335.524 52.2323 335.572 51.6683H335.5C335.344 51.9443 335.158 52.2623 334.942 52.6223C334.738 52.9703 334.558 53.2763 334.402 53.5403L331.594 57.9143H329.686ZM340.022 57.9143V49.0763H342.092V52.5143H343.388L344.216 50.7323C344.384 50.3483 344.558 50.0363 344.738 49.7963C344.93 49.5563 345.128 49.3703 345.332 49.2383C345.536 49.0943 345.758 48.9983 345.998 48.9503C346.238 48.8903 346.496 48.8603 346.772 48.8603C347.012 48.8603 347.222 48.8963 347.402 48.9683L347.06 50.8943C346.952 50.8583 346.844 50.8403 346.736 50.8403C346.52 50.8403 346.316 50.9063 346.124 51.0383C345.932 51.1583 345.74 51.4403 345.548 51.8843L344.936 53.2523L347.942 57.9143H345.656L343.424 54.1703H342.092V57.9143H340.022ZM148.147 74.0383C147.691 74.0383 147.343 73.8643 147.103 73.5163C146.863 73.1683 146.743 72.6763 146.743 72.0403C146.743 70.4683 147.487 69.2923 148.975 68.5123L149.479 69.4303C148.975 69.7183 148.597 70.0363 148.345 70.3843C148.105 70.7323 147.985 71.1703 147.985 71.6983C148.021 71.6863 148.075 71.6803 148.147 71.6803C148.471 71.6803 148.747 71.7823 148.975 71.9863C149.215 72.1783 149.335 72.4483 149.335 72.7963C149.335 73.1803 149.221 73.4863 148.993 73.7143C148.777 73.9303 148.495 74.0383 148.147 74.0383ZM151.873 74.0383C151.417 74.0383 151.069 73.8643 150.829 73.5163C150.589 73.1683 150.469 72.6763 150.469 72.0403C150.469 70.4683 151.213 69.2923 152.701 68.5123L153.205 69.4303C152.701 69.7183 152.323 70.0363 152.071 70.3843C151.831 70.7323 151.711 71.1703 151.711 71.6983C151.747 71.6863 151.801 71.6803 151.873 71.6803C152.197 71.6803 152.473 71.7823 152.701 71.9863C152.941 72.1783 153.061 72.4483 153.061 72.7963C153.061 73.1803 152.947 73.4863 152.719 73.7143C152.503 73.9303 152.221 74.0383 151.873 74.0383ZM155.913 80.9143V69.1423H158.271L160.359 74.9023C160.491 75.2743 160.617 75.6583 160.737 76.0543C160.857 76.4383 160.983 76.8223 161.115 77.2063H161.187C161.319 76.8223 161.439 76.4383 161.547 76.0543C161.667 75.6583 161.793 75.2743 161.925 74.9023L163.959 69.1423H166.335V80.9143H164.409V75.5323C164.409 75.2563 164.415 74.9563 164.427 74.6323C164.451 74.3083 164.475 73.9843 164.499 73.6603C164.523 73.3243 164.553 73.0003 164.589 72.6883C164.625 72.3643 164.655 72.0643 164.679 71.7883H164.607L163.653 74.5243L161.727 79.8163H160.485L158.541 74.5243L157.605 71.7883H157.533C157.557 72.0643 157.581 72.3643 157.605 72.6883C157.641 73.0003 157.671 73.3243 157.695 73.6603C157.731 73.9843 157.755 74.3083 157.767 74.6323C157.791 74.9563 157.803 75.2563 157.803 75.5323V80.9143H155.913ZM169.145 80.9143V72.0763H171.215V75.1003H172.151C172.679 75.1003 173.165 75.1543 173.609 75.2623C174.065 75.3703 174.455 75.5383 174.779 75.7663C175.103 75.9943 175.355 76.2943 175.535 76.6663C175.727 77.0263 175.823 77.4643 175.823 77.9803C175.823 78.5083 175.727 78.9583 175.535 79.3303C175.355 79.7023 175.103 80.0083 174.779 80.2483C174.455 80.4763 174.065 80.6443 173.609 80.7523C173.165 80.8603 172.679 80.9143 172.151 80.9143H169.145ZM171.215 79.3123H172.025C173.213 79.3123 173.807 78.8623 173.807 77.9623C173.807 77.0983 173.213 76.6663 172.025 76.6663H171.215V79.3123ZM177.173 80.9143V72.0763H179.243V80.9143H177.173ZM182.267 73.8763L181.763 72.9583C182.267 72.6703 182.639 72.3523 182.879 72.0043C183.131 71.6563 183.257 71.2183 183.257 70.6903C183.221 70.7023 183.167 70.7083 183.095 70.7083C182.783 70.7083 182.507 70.6123 182.267 70.4203C182.039 70.2163 181.925 69.9403 181.925 69.5923C181.925 69.2083 182.033 68.9083 182.249 68.6923C182.465 68.4643 182.747 68.3503 183.095 68.3503C183.551 68.3503 183.899 68.5243 184.139 68.8723C184.391 69.2203 184.517 69.7123 184.517 70.3483C184.517 71.9203 183.767 73.0963 182.267 73.8763ZM185.993 73.8763L185.489 72.9583C185.993 72.6703 186.365 72.3523 186.605 72.0043C186.857 71.6563 186.983 71.2183 186.983 70.6903C186.947 70.7023 186.893 70.7083 186.821 70.7083C186.509 70.7083 186.233 70.6123 185.993 70.4203C185.765 70.2163 185.651 69.9403 185.651 69.5923C185.651 69.2083 185.759 68.9083 185.975 68.6923C186.191 68.4643 186.473 68.3503 186.821 68.3503C187.277 68.3503 187.625 68.5243 187.865 68.8723C188.117 69.2203 188.243 69.7123 188.243 70.3483C188.243 71.9203 187.493 73.0963 185.993 73.8763ZM198.64 84.4063V81.8683L198.712 80.5363C198.472 80.7043 198.202 80.8423 197.902 80.9503C197.614 81.0703 197.314 81.1303 197.002 81.1303C195.97 81.1303 195.148 80.7283 194.536 79.9243C193.924 79.1083 193.618 77.9683 193.618 76.5043C193.618 75.7843 193.708 75.1363 193.888 74.5603C194.08 73.9843 194.332 73.4983 194.644 73.1023C194.956 72.7063 195.316 72.4003 195.724 72.1843C196.132 71.9683 196.558 71.8603 197.002 71.8603C197.35 71.8603 197.662 71.9143 197.938 72.0223C198.214 72.1183 198.472 72.2503 198.712 72.4183L198.64 71.1223V68.2063H200.674V71.1223L200.602 72.4723C200.878 72.3043 201.178 72.1603 201.502 72.0403C201.826 71.9203 202.144 71.8603 202.456 71.8603C202.96 71.8603 203.41 71.9683 203.806 72.1843C204.214 72.3883 204.556 72.6883 204.832 73.0843C205.12 73.4803 205.336 73.9543 205.48 74.5063C205.624 75.0583 205.696 75.6763 205.696 76.3603C205.696 77.1163 205.6 77.7943 205.408 78.3943C205.228 78.9823 204.976 79.4803 204.652 79.8883C204.34 80.2843 203.974 80.5903 203.554 80.8063C203.146 81.0223 202.72 81.1303 202.276 81.1303C201.7 81.1303 201.142 80.9443 200.602 80.5723L200.674 81.8683V84.4063H198.64ZM197.506 79.4203C197.734 79.4203 197.938 79.3843 198.118 79.3123C198.31 79.2403 198.508 79.1083 198.712 78.9163V74.0383C198.508 73.8703 198.298 73.7503 198.082 73.6783C197.866 73.6063 197.65 73.5703 197.434 73.5703C196.966 73.5703 196.57 73.8223 196.246 74.3263C195.922 74.8303 195.76 75.5503 195.76 76.4863C195.76 77.4463 195.91 78.1783 196.21 78.6823C196.51 79.1743 196.942 79.4203 197.506 79.4203ZM201.826 79.4203C202.33 79.4203 202.744 79.1683 203.068 78.6643C203.392 78.1483 203.554 77.3863 203.554 76.3783C203.554 75.4903 203.416 74.8003 203.14 74.3083C202.876 73.8163 202.456 73.5703 201.88 73.5703C201.676 73.5703 201.466 73.6063 201.25 73.6783C201.046 73.7383 200.83 73.8643 200.602 74.0563V78.9523C200.818 79.1323 201.034 79.2583 201.25 79.3303C201.466 79.3903 201.658 79.4203 201.826 79.4203ZM211.4 81.1303C210.848 81.1303 210.32 81.0283 209.816 80.8243C209.312 80.6203 208.862 80.3203 208.466 79.9243C208.082 79.5283 207.776 79.0423 207.548 78.4663C207.32 77.8903 207.206 77.2363 207.206 76.5043C207.206 75.7723 207.32 75.1183 207.548 74.5423C207.776 73.9663 208.082 73.4803 208.466 73.0843C208.862 72.6883 209.312 72.3883 209.816 72.1843C210.32 71.9683 210.848 71.8603 211.4 71.8603C211.952 71.8603 212.48 71.9683 212.984 72.1843C213.5 72.3883 213.95 72.6883 214.334 73.0843C214.718 73.4803 215.024 73.9663 215.252 74.5423C215.492 75.1183 215.612 75.7723 215.612 76.5043C215.612 77.2363 215.492 77.8903 215.252 78.4663C215.024 79.0423 214.718 79.5283 214.334 79.9243C213.95 80.3203 213.5 80.6203 212.984 80.8243C212.48 81.0283 211.952 81.1303 211.4 81.1303ZM211.4 79.4383C212.048 79.4383 212.558 79.1743 212.93 78.6463C213.302 78.1063 213.488 77.3923 213.488 76.5043C213.488 75.6043 213.302 74.8903 212.93 74.3623C212.558 73.8223 212.048 73.5523 211.4 73.5523C210.752 73.5523 210.242 73.8223 209.87 74.3623C209.51 74.8903 209.33 75.6043 209.33 76.5043C209.33 77.3923 209.51 78.1063 209.87 78.6463C210.242 79.1743 210.752 79.4383 211.4 79.4383ZM217.66 84.4063V72.0763H219.37L219.514 73.0123H219.586C219.958 72.7003 220.372 72.4303 220.828 72.2023C221.284 71.9743 221.758 71.8603 222.25 71.8603C222.802 71.8603 223.288 71.9683 223.708 72.1843C224.14 72.3883 224.506 72.6883 224.806 73.0843C225.106 73.4803 225.334 73.9543 225.49 74.5063C225.646 75.0583 225.724 75.6763 225.724 76.3603C225.724 77.1163 225.616 77.7943 225.4 78.3943C225.196 78.9823 224.92 79.4803 224.572 79.8883C224.224 80.2843 223.822 80.5903 223.366 80.8063C222.91 81.0223 222.436 81.1303 221.944 81.1303C221.56 81.1303 221.176 81.0463 220.792 80.8783C220.408 80.7103 220.036 80.4703 219.676 80.1583L219.73 81.6343V84.4063H217.66ZM221.512 79.4203C222.1 79.4203 222.592 79.1683 222.988 78.6643C223.384 78.1483 223.582 77.3863 223.582 76.3783C223.582 75.4903 223.432 74.8003 223.132 74.3083C222.832 73.8163 222.346 73.5703 221.674 73.5703C221.05 73.5703 220.402 73.9003 219.73 74.5603V78.6823C220.054 78.9583 220.366 79.1503 220.666 79.2583C220.966 79.3663 221.248 79.4203 221.512 79.4203ZM227.821 80.9143V72.0763H230.197L231.619 75.6403C231.751 76.0123 231.871 76.3663 231.979 76.7023C232.099 77.0383 232.213 77.3743 232.321 77.7103H232.393C232.513 77.3743 232.633 77.0383 232.753 76.7023C232.885 76.3663 233.005 76.0123 233.113 75.6403L234.463 72.0763H236.839V80.9143H234.967V77.8183C234.967 77.6023 234.973 77.3503 234.985 77.0623C235.009 76.7623 235.033 76.4563 235.057 76.1443C235.081 75.8203 235.105 75.5083 235.129 75.2083C235.153 74.8963 235.177 74.6203 235.201 74.3803H235.129C234.997 74.7523 234.853 75.1423 234.697 75.5503C234.553 75.9463 234.415 76.3183 234.283 76.6663L232.951 80.1223H231.727L230.359 76.6663C230.227 76.3183 230.083 75.9403 229.927 75.5323C229.783 75.1243 229.645 74.7403 229.513 74.3803H229.441C229.453 74.6203 229.471 74.8963 229.495 75.2083C229.531 75.5083 229.555 75.8203 229.567 76.1443C229.591 76.4563 229.609 76.7623 229.621 77.0623C229.645 77.3503 229.657 77.6023 229.657 77.8183V80.9143H227.821ZM241.617 81.1303C240.837 81.1303 240.207 80.8963 239.727 80.4283C239.247 79.9483 239.007 79.3183 239.007 78.5383C239.007 78.0703 239.103 77.6563 239.295 77.2963C239.499 76.9243 239.811 76.6063 240.231 76.3423C240.663 76.0783 241.203 75.8563 241.851 75.6763C242.511 75.4963 243.297 75.3583 244.209 75.2623C244.197 75.0343 244.161 74.8183 244.101 74.6143C244.053 74.3983 243.963 74.2123 243.831 74.0563C243.711 73.8883 243.549 73.7623 243.345 73.6783C243.141 73.5823 242.889 73.5343 242.589 73.5343C242.157 73.5343 241.731 73.6183 241.311 73.7863C240.903 73.9543 240.501 74.1583 240.105 74.3983L239.349 73.0123C239.841 72.7003 240.393 72.4303 241.005 72.2023C241.617 71.9743 242.277 71.8603 242.985 71.8603C244.089 71.8603 244.911 72.1903 245.451 72.8503C246.003 73.4983 246.279 74.4403 246.279 75.6763V80.9143H244.569L244.425 79.9423H244.353C243.957 80.2783 243.531 80.5603 243.075 80.7883C242.631 81.0163 242.145 81.1303 241.617 81.1303ZM242.283 79.5103C242.643 79.5103 242.967 79.4263 243.255 79.2583C243.555 79.0903 243.873 78.8503 244.209 78.5383V76.5583C243.609 76.6303 243.105 76.7263 242.697 76.8463C242.289 76.9663 241.959 77.1043 241.707 77.2603C241.455 77.4043 241.275 77.5723 241.167 77.7643C241.059 77.9563 241.005 78.1603 241.005 78.3763C241.005 78.7723 241.125 79.0603 241.365 79.2403C241.605 79.4203 241.911 79.5103 242.283 79.5103ZM250.401 80.9143V73.7143H247.629V72.0763H255.261V73.7143H252.489V80.9143H250.401ZM258.791 81.1303C258.011 81.1303 257.381 80.8963 256.901 80.4283C256.421 79.9483 256.181 79.3183 256.181 78.5383C256.181 78.0703 256.277 77.6563 256.469 77.2963C256.673 76.9243 256.985 76.6063 257.405 76.3423C257.837 76.0783 258.377 75.8563 259.025 75.6763C259.685 75.4963 260.471 75.3583 261.383 75.2623C261.371 75.0343 261.335 74.8183 261.275 74.6143C261.227 74.3983 261.137 74.2123 261.005 74.0563C260.885 73.8883 260.723 73.7623 260.519 73.6783C260.315 73.5823 260.063 73.5343 259.763 73.5343C259.331 73.5343 258.905 73.6183 258.485 73.7863C258.077 73.9543 257.675 74.1583 257.279 74.3983L256.523 73.0123C257.015 72.7003 257.567 72.4303 258.179 72.2023C258.791 71.9743 259.451 71.8603 260.159 71.8603C261.263 71.8603 262.085 72.1903 262.625 72.8503C263.177 73.4983 263.453 74.4403 263.453 75.6763V80.9143H261.743L261.599 79.9423H261.527C261.131 80.2783 260.705 80.5603 260.249 80.7883C259.805 81.0163 259.319 81.1303 258.791 81.1303ZM259.457 79.5103C259.817 79.5103 260.141 79.4263 260.429 79.2583C260.729 79.0903 261.047 78.8503 261.383 78.5383V76.5583C260.783 76.6303 260.279 76.7263 259.871 76.8463C259.463 76.9663 259.133 77.1043 258.881 77.2603C258.629 77.4043 258.449 77.5723 258.341 77.7643C258.233 77.9563 258.179 78.1603 258.179 78.3763C258.179 78.7723 258.299 79.0603 258.539 79.2403C258.779 79.4203 259.085 79.5103 259.457 79.5103Z" fill="#374259"/>
</g>
<defs>
<filter id="filter0_d" x="102.777" y="5.94434" width="310.509" height="117.833" filterUnits="userSpaceOnUse" color-interpolation-filters="sRGB">
<feFlood flood-opacity="0" result="BackgroundImageFix"/>
<feColorMatrix in="SourceAlpha" type="matrix" values="0 0 0 0 0 0 0 0 0 0 0 0 0 0 0 0 0 0 127 0"/>
<feOffset/>
<feGaussianBlur stdDeviation="10"/>
<feColorMatrix type="matrix" values="0 0 0 0 0 0 0 0 0 0 0 0 0 0 0 0 0 0 0.04 0"/>
<feBlend mode="normal" in2="BackgroundImageFix" result="effect1_dropShadow"/>
<feBlend mode="normal" in="SourceGraphic" in2="effect1_dropShadow" result="shape"/>
</filter>
<linearGradient id="paint0_linear" x1="22.5784" y1="232.661" x2="233.845" y2="232.661" gradientUnits="userSpaceOnUse">
<stop stop-color="#A2F005"/>
<stop offset="0.5" stop-color="#FD0102"/>
<stop offset="1" stop-color="#0231E7"/>
</linearGradient>
<linearGradient id="paint1_linear" x1="233.467" y1="232.661" x2="444.733" y2="232.661" gradientUnits="userSpaceOnUse">
<stop stop-color="#0231E7"/>
<stop offset="0.5" stop-color="#3274FA"/>
<stop offset="1" stop-color="#9CFF05"/>
</linearGradient>
<linearGradient id="paint2_linear" x1="444.361" y1="232.688" x2="656.123" y2="232.688" gradientUnits="userSpaceOnUse">
<stop stop-color="#A2F005"/>
<stop offset="0.5" stop-color="#FD0102"/>
<stop offset="1" stop-color="#0231E7"/>
</linearGradient>
<linearGradient id="paint3_linear" x1="656.929" y1="232.661" x2="868.195" y2="232.661" gradientUnits="userSpaceOnUse">
<stop stop-color="#0231E7"/>
<stop offset="0.5" stop-color="#3274FA"/>
<stop offset="1" stop-color="#9CFF05"/>
</linearGradient>
<linearGradient id="paint4_linear" x1="868.09" y1="232.661" x2="1079.36" y2="232.661" gradientUnits="userSpaceOnUse">
<stop stop-color="#A2F005"/>
<stop offset="0.5" stop-color="#FD0102"/>
<stop offset="1" stop-color="#0231E7"/>
</linearGradient>
<clipPath id="clip0">
<rect width="1101" height="466" fill="white"/>
</clipPath>
</defs>
</svg>
